/* XPM */
static char *_6c8845f406d4d9afa3ac4f6e4a3e61ay51BUEsXpI4RVQVG[] = {
/* columns rows colors chars-per-pixel */
"32 32 165 2 ",
"   c #738525",
".  c #738525",
"X  c #0F1728",
"o  c #0C1527",
"O  c #0D1726",
"+  c #12182D",
"@  c #FBC413",
"#  c #0E1627",
"$  c #FCCA0D",
"%  c #0E1729",
"&  c #FAC616",
"*  c #0C1728",
"=  c #10162D",
"-  c #F9B510",
";  c #F58312",
":  c #FBC817",
">  c #F5A111",
",  c #F9CA19",
"<  c #F78E10",
"1  c #FACE19",
"2  c #121928",
"3  c #121927",
"4  c #131A2C",
"5  c #FDC711",
"6  c #E1640E",
"7  c #F9C710",
"8  c #FBA71A",
"9  c #F59016",
"0  c #F06F12",
"q  c #F8991A",
"w  c #F9AF23",
"e  c #F89010",
"r  c #F9C51E",
"t  c #F89213",
"y  c #181B27",
"u  c #FAC711",
"i  c #FA9D12",
"p  c #DB5A0D",
"a  c #722408",
"s  c #73240B",
"d  c #6F240D",
"f  c #E15C0B",
"g  c #F89C1B",
"h  c #FAB021",
"j  c #FDAD1B",
"k  c #171A2A",
"l  c #D7944F",
"z  c #F5AF10",
"x  c #FACA0E",
"c  c #FBA217",
"v  c #E0560B",
"b  c #7A2708",
"n  c #78270A",
"m  c #762207",
"M  c #802D0D",
"N  c #832E0B",
"B  c #F99317",
"V  c #F9A422",
"C  c #FCC113",
"Z  c #FCAB1A",
"A  c #171C30",
"S  c #14182A",
"D  c #131A28",
"F  c #FBAF1F",
"G  c #FB9B18",
"H  c #6F210B",
"J  c #3F130F",
"K  c #421715",
"L  c #3D1411",
"P  c #411815",
"I  c #401411",
"U  c #D5540F",
"Y  c #F8A11D",
"T  c #F69B1B",
"R  c #131B2C",
"E  c #151C26",
"W  c #F4A01C",
"Q  c #F6A51D",
"!  c #F78411",
"~  c #DF540A",
"^  c #832907",
"/  c #451818",
"(  c #451A17",
")  c #431715",
"_  c #431814",
"`  c #3F1311",
"'  c #D34E09",
"]  c #F27710",
"[  c #F5750D",
"{  c #FAAC23",
"}  c #11192B",
"|  c #151C25",
" . c #738525",
".. c #FDB918",
"X. c #E0530B",
"o. c #461511",
"O. c #802D0A",
"+. c #471D1C",
"@. c #531D15",
"#. c #411813",
"$. c #8D2A0B",
"%. c #F79F1E",
"&. c #FBAF1E",
"*. c #E96B0A",
"=. c #E5690E",
"-. c #161A2B",
";. c #151D26",
":. c #131C2E",
">. c #F6830B",
",. c #FAA21D",
"<. c #5C1B0E",
"1. c #431A18",
"2. c #862E0C",
"3. c #822A09",
"4. c #872F0D",
"5. c #451D1C",
"6. c #F58412",
"7. c #FA9D21",
"8. c #F9991D",
"9. c #1B2429",
"0. c #161B25",
"q. c #F09412",
"w. c #F79A1C",
"e. c #F88F13",
"r. c #982E05",
"t. c #431612",
"y. c #431713",
"u. c #441B14",
"i. c #FBA019",
"p. c #EE6F0D",
"a. c #F8A622",
"s. c #DD5709",
"d. c #1A202B",
"f. c #161E2A",
"g. c #EF6B0B",
"h. c #EB6406",
"j. c #FBAA19",
"k. c #E15905",
"l. c #F9AA22",
"z. c #F48012",
"x. c #F9A61F",
"c. c #E7640F",
"v. c #FBAE20",
"b. c #1B222A",
"n. c #161F24",
"m. c #171E26",
"M. c #181E2A",
"N. c #F69117",
"B. c #FCA61D",
"V. c #E75F0B",
"C. c #171D2A",
"Z. c #F5951A",
"A. c #F99A21",
"S. c #121E28",
"D. c #19202A",
"F. c #F38411",
"G. c #161D24",
"H. c #3B942D",
"J. c #206633",
"K. c #1C2129",
"L. c #1E1E24",
"P. c #172028",
"I. c #3E982A",
"U. c #182228",
"Y. c white",
/* pixels */
"                                                                ",
"                                                                ",
"                                                                ",
"                                                                ",
"                                                                ",
"                                                                ",
"                                                                ",
"                                                                ",
"                                                                ",
"                          . X . o . O . .                       ",
"                      . . + @ # $ % & * . .                     ",
"                      = + - ; : > , < 1 2 3                     ",
"                .   4 5 6 7 8 9 0 q w e r t y . .               ",
"                . 4 t t u i p a s d f g h j t y .               ",
"                k l z x c v b n m M N B V C Z A .               ",
"                . S D F G H J K L P I U Y T R . .               ",
"                E W Q ! ~ ^ / ( ) _ ` ' ] [ { } .               ",
"                  |  ...X.o.O.+.( @.#.$.%.&.*.=.-.              ",
"                ;.t :.>.,.<.1.2.3.4.5.6.7.8.t 9..               ",
"                . 0.q.t w.e.r.t.y.u.i.p.a.s.d.. .               ",
"                    f.g.h.j.k.l.z.x.c.v.b.n.                    ",
"                      m.M.N.B.V.C.Z.A.S.                        ",
"                          D.F.G.H.J.K.                          ",
"                            L.P.I.U.                            ",
"                              U.I.U.                            ",
"                              U.I.U.                            ",
"                    .         U.I.U.                            ",
"                    .         U.I.U.                            ",
"                . .           U.I.U.                            ",
"                . . .         U.I.U.                            ",
"                    .         U.I.U.                            ",
"                .             U.I.U.                            "
};
