/* XPM */
static char *_096342a72da42adac19e85bac5327a7UVdA4ZatRWRY1aA8[] = {
/* columns rows colors chars-per-pixel */
"32 32 10 1 ",
"  c #479D2E",
". c #4D9A2D",
"X c #489C2E",
"o c #54962B",
"O c #6C8926",
"+ c #668C28",
"@ c #738525",
"# c #79863E",
"$ c #7B8846",
"% c #848D5C",
/* pixels */
"#@@@@@@@@@@@@@@@@@@@@@@@@@@@@@O@",
"#@@@@@@@@@@@@@@@@@@@@@@@@@@@@@.O",
"#@@@@@@@@@@@@@@@@@@@@@@@@@@@@@.O",
"#@@@@@@@@@@@@@@@@@@@@@@@@@@@@@.O",
"#@@@@@@@@@@@@@@@@@@@@@@@@@@@@@oO",
"#@@@@@@@@@@@@@@@@@@@@@@@@@@@@@@@",
"#@@@@@@@@@@O@@@@@@@@@@@@@@@@@@@@",
"#@@@O@@@@@@.O@@@@@@@@@@@@@@@@@@@",
"#@@@.O@@@@@.O@@@@@@@@@@@@@@@@@@@",
"#@@@.+@@@@@oO@@@@@@@@@@@@@@@@@@@",
"#@@@. O@@@@@@@@@@@@@@@@O@@@@@@@@",
"#@@@oXO@@@@@@@@@@@@@@@@.O@@@@@@@",
"#@@@@oO@@@@@@@@@@@@@@@@.O@@@@@@@",
"#@@@@@@@@@@@@@@@@@@@@@@oO@@@@@@@",
"#@@@@@@@@@@@@@@@@@@@@@@@@@@@@@@@",
"#@@@@@@@@@@@@@@@@@@@@@@@@@@@@@@@",
"#@@@@@@@@@@@@@@@@@@@@@@@@@@@@@@@",
"#@@@@@@@@@@@@@@@@@@@@@@@@@@@@@@@",
"#@@@@@@@@@@@@@@@@@@@@@@@@@@@@@@@",
"#@@@@@@@@@@@@@@@@@@@@@@@O@@@@@@@",
"#@@@@@@@@@O@@@@@@@@@@@@@.O@@@@@@",
"#@@@@@@@@@.O@@@@@@@@@@@@.O@@@@@@",
"#@@@@@@@@@.O@@@@@@@@@@@@.O@@@@@@",
"#@@@@@@@@@.O@@@@@@@@@@@@oO@@@@@@",
"#@@@@@@@@@oO@@@@@@@@@@@@@@@@@@@@",
"#@@@@@@@@@@@@@@@@@@@@@@@@@@@@@@@",
"#@@@@@@@@@@@@@@@@@@@@@@@@@@@@@@@",
"#@@@@@@@@@@@@@@@@@@@@@@@@@@@@@@@",
"#@@@@@@@@@@@@@@@@@@@@@@@@@@@@@@@",
"#@@@@@@@@@@@@@@@@@@@@@@@@@@@@@@@",
"#@@@@@@@@@@@@@@@@@@@@@@@@@@@@@@@",
"%$$$$$$$$$$$$$$$$$$$$$$$$$$$$$$$"
};
