/* XPM */
static char *a4a3e0c026d2476adbefe30e5fd54a57zUOUJj24fljNMcuu[] = {
/* columns rows colors chars-per-pixel */
"32 32 144 2 ",
"   c #1A2C2F",
".  c #263436",
"X  c #3C3534",
"o  c #393D3F",
"O  c #40322F",
"+  c #4F322C",
"@  c #5D352D",
"#  c #483937",
"$  c #463E3D",
"%  c #4C3C3A",
"&  c #533F3C",
"*  c #773C31",
"=  c #56403D",
"-  c #5B423E",
";  c #75473F",
":  c #3B3E40",
">  c #3F484C",
",  c #444545",
"<  c gray31",
"1  c #524644",
"2  c #404C50",
"3  c #484F51",
"4  c #4F5051",
"5  c #49585E",
"6  c #535455",
"7  c #535558",
"8  c #515B5C",
"9  c #595B5C",
"0  c #644641",
"q  c #764B45",
"w  c #7C4D45",
"e  c #655D5C",
"r  c #545F61",
"t  c #556062",
"y  c #5F6C6E",
"u  c #5B6D74",
"i  c #626565",
"p  c #676A6A",
"a  c #6A6E6E",
"s  c #616E70",
"d  c #737374",
"f  c #727A7B",
"g  c #7D7E7F",
"h  c #B4131A",
"j  c #CF0F16",
"k  c #CB1017",
"l  c #CE161D",
"z  c #D91219",
"x  c #EB0003",
"c  c #EB030B",
"v  c #EC0B14",
"b  c #F10711",
"n  c #F3131C",
"m  c #D01E23",
"M  c #EC1C24",
"N  c #F81720",
"B  c #F41C24",
"V  c #8A4336",
"C  c #A84E3E",
"Z  c #8C5249",
"A  c #9C5043",
"S  c #90544A",
"D  c #9C554A",
"F  c #9F584D",
"G  c #A2574B",
"H  c #A0584D",
"J  c #A9594C",
"K  c #BC5745",
"L  c #BD5B4B",
"P  c #AC5D50",
"I  c #BF6354",
"U  c #C45947",
"Y  c #CB5F4E",
"T  c #D6614D",
"R  c #C46555",
"E  c #CB6352",
"W  c #D56452",
"Q  c #D66A58",
"!  c #E26753",
"~  c #E96954",
"^  c #E46E5B",
"/  c #ED6F5A",
"(  c #F36E58",
")  c #E9705C",
"_  c #F3725D",
"`  c #FB735C",
"'  c #D87B7E",
"]  c #6A7D85",
"[  c #768486",
"{  c #7F8081",
"}  c #818183",
"|  c #838C8D",
" . c #879496",
".. c #8A9594",
"X. c #82959E",
"o. c #8E9B9D",
"O. c #959595",
"+. c #9B9E9E",
"@. c #94A6AF",
"#. c #A3ADA7",
"$. c #A3AEAC",
"%. c #A6B0AA",
"&. c #A6ABB4",
"*. c #A9B1BB",
"=. c #B4BDBE",
"-. c #BCBCBC",
";. c #F5858A",
":. c #F6898D",
">. c #F68E92",
",. c #F79195",
"<. c #FC9094",
"1. c #DBA7A8",
"2. c #FABCBF",
"3. c #ACBCC6",
"4. c #BBC3C5",
"5. c #BBC7D4",
"6. c #BCC9D6",
"7. c #BFCAD8",
"8. c #C2CDDB",
"9. c #CCD2D3",
"0. c #C5D0DE",
"q. c #D2D7D8",
"w. c #DCDCDC",
"e. c #FCC3C5",
"r. c #FFC5C8",
"t. c #C7D6E0",
"y. c #CDDAE7",
"u. c #DBDFE0",
"i. c #D0DCEA",
"p. c #FDDEE0",
"a. c #D6E2F0",
"s. c #D8E4F3",
"d. c #DDEAF6",
"f. c #DFEBFA",
"g. c #E1E4E5",
"h. c #EAEBEB",
"j. c #EDEFF0",
"k. c #E2EEFD",
"l. c #E4F1FF",
"z. c #E9F5FF",
"x. c #ECFAFF",
"c. c #F3F3F3",
"v. c #F0FDFF",
"b. c #738525",
/* pixels */
"b.b.b.b.b.b.b.b.b.b.b.b.b.b.b.b.b.b.b.b.b.b.b.b.b.b.b.b.b.b.b.b.",
"b.b.b.b.b.b.b.b.b.b.b.b.b.b.b.b.b.b.b.b.b.b.b.b.b.b.b.b.b.b.b.b.",
"b.b.b.b.b.b.b.b.b.b.b.b.b.b.c.f f c.b.b.b.b.b.b.b.b.b.b.b.b.b.b.",
"b.b.b.b.b.b.b.b.b.b.b.b.b.u.8 F H 8 u.b.b.O.p i p -.b.b.b.b.b.b.",
"b.b.b.b.b.b.b.b.b.b.b.b.=., R ! ! R , =.b.9 J W Z | b.b.b.b.b.b.",
"b.b.b.b.b.b.b.b.b.b.b. .& ) K : : K ) & o.i E ` D  .b.b.b.b.b.b.",
"b.b.b.b.b.b.b.b.b.j.s w ` V 2 t.t.2 V ` w   L ` D  .b.b.b.b.b.b.",
"b.b.b.b.b.b.b.b.9.3 P ( @ u d.z.z.d.u @ ( G X Y J  .b.b.b.b.b.b.",
"b.b.b.b.b.b.b.$.$ Q T O X.x.l.f.f.l.x.X.O T E # = +.b.b.b.b.b.b.",
"b.b.b.b.b.b.[ 0 _ C o 3.v.k.f.f.f.f.k.v.3.: C / - y b.b.b.b.b.b.",
"b.b.b.b.g.t S ` * 5 y.x.f.f.f.f.f.f.f.f.x.y.5 * ` Z r g.b.b.b.b.",
"b.b.b.4., I ~ + ] l.z.f.f.f.f.f.f.f.f.f.f.z.l.] + ~ I , 4.b.b.b.",
"b.b.o.% ^ U X @.x.k.f.f.f.f.f.f.f.f.f.f.f.f.k.x.@.X U ^ % o.b.b.",
"c.f q ` A > 6.v.k.f.f.f.f.f.f.f.f.f.f.f.f.f.f.k.v.6.> A ` q f c.",
"q.0 _ ; . y.x.f.f.f.f.f.f.f.f.f.f.f.f.f.f.f.f.f.f.x.y.. ; _ 0 q.",
"c.e 1 | 9 s.l.f.f.f.k.l.l.l.l.l.l.l.l.k.k.k.f.f.f.l.s.9 | 1 e c.",
"b.b.h.b.7 a.l.f.f.k.i.8.0.8.8.8.8.8.8.0.8.y.k.f.f.l.a.7 b.h.c.b.",
"b.b.b.c.6 a.l.f.l.y.9 g } } { { { { { } g a y.l.f.l.a.6 c.b.b.b.",
"b.b.b.c.6 a.l.f.l.7.d b.b.b.b.b.b.b.b.b.b.#.5.l.f.l.a.6 c.b.b.b.",
"b.b.b.c.6 a.l.f.l.8.d b.b.p.>.,.,.:.e.b.b.#.6.l.f.l.a.6 c.b.b.b.",
"b.b.b.c.6 a.l.f.l.8.d b.b.2.c v v x ;.b.b.#.6.l.f.l.a.6 c.b.b.b.",
"b.b.b.c.6 a.l.f.l.8.d b.b.e.n B M v >.b.b.#.6.l.f.l.a.6 c.b.b.b.",
"b.b.b.c.6 a.l.f.l.8.d b.b.e.k h B v >.b.b.#.6.l.f.l.a.6 c.b.b.b.",
"b.b.b.c.6 a.l.f.l.8.d b.b.e.z l B v >.b.b.#.6.l.f.l.a.6 c.b.b.b.",
"b.b.b.c.6 a.l.f.l.8.d b.b.r.n N B b <.b.b.%.6.l.f.l.a.6 c.b.b.b.",
"b.b.b.c.6 a.l.f.l.8.i w.w.1.l m m j ' w.w...6.l.f.l.a.6 c.b.b.b.",
"b.b.b.c.6 s.l.k.k.f.*.&.&.&.&.&.&.&.&.&.&.*.f.k.k.l.s.6 c.b.b.b.",
"b.b.b.c.4 s.l.k.k.k.x.x.x.x.x.x.x.x.x.x.x.x.k.k.k.l.s.4 c.b.b.b.",
"b.b.b.c.< 7 7 7 7 7 7 7 7 7 7 7 7 7 7 7 7 7 7 7 7 7 7 < c.b.b.b.",
"b.b.b.b.h.w.w.w.w.w.w.w.w.w.w.w.w.w.w.w.w.w.w.w.w.w.w.h.b.b.b.b.",
"b.b.b.b.b.b.b.b.b.b.b.b.b.b.b.b.b.b.b.b.b.b.b.b.b.b.b.b.b.b.b.b.",
"b.b.b.b.b.b.b.b.b.b.b.b.b.b.b.b.b.b.b.b.b.b.b.b.b.b.b.b.b.b.b.b."
};
