/* XPM */
static char *c6a43b6bf00e4ddba5571ef5f042eff86DlMeZwvQNomsTFI[] = {
/* columns rows colors chars-per-pixel */
"32 32 134 2 ",
"   c #738525",
".  c #0F1E1F",
"X  c #152A2D",
"o  c #1E2D2F",
"O  c #1D2D30",
"+  c #232E2F",
"@  c #242F30",
"#  c #282F30",
"$  c #2A3134",
"%  c #323333",
"&  c #3A3433",
"*  c #373738",
"=  c #343A3D",
"-  c #3A3D3F",
";  c #462F2C",
":  c #4F312B",
">  c #413735",
",  c #433937",
"<  c #463B39",
"1  c #4D3D3A",
"2  c #68372E",
"3  c #6A382F",
"4  c #763C31",
"5  c #783C32",
"6  c #45403E",
"7  c #59413E",
"8  c #65443F",
"9  c #323D40",
"0  c #394144",
"q  c #3C464E",
"w  c #374651",
"e  c #3D4A54",
"r  c #3C4D59",
"t  c #454647",
"y  c #454748",
"u  c #4C4D4F",
"i  c #455359",
"p  c #555454",
"a  c #535558",
"s  c #595C5F",
"d  c #674641",
"f  c #754A43",
"g  c #7B4D45",
"h  c #7D4F48",
"j  c #4D5D64",
"k  c #5B5D60",
"l  c #455F70",
"z  c #738525",
"x  c #5F6368",
"c  c #456072",
"v  c #616467",
"b  c #63666A",
"n  c #676B6F",
"m  c #696E72",
"M  c #6B7075",
"N  c #64777E",
"B  c #777678",
"V  c #7C7B7A",
"C  c #97483A",
"Z  c #99493A",
"A  c #A64E3E",
"S  c #A84F3F",
"D  c #894F46",
"F  c #8E5349",
"G  c #955045",
"H  c #93554B",
"J  c #A25A4E",
"K  c #B35B4C",
"L  c #BC5B4A",
"P  c #B15F51",
"I  c #BF6354",
"U  c #C35E4D",
"Y  c #C85C49",
"T  c #D5624E",
"R  c #C66050",
"E  c #CD6757",
"W  c #D76350",
"Q  c #DC6B59",
"!  c #E36752",
"~  c #EC6B56",
"^  c #E46E5B",
"/  c #F26E58",
"(  c #EE715C",
")  c #F6735E",
"_  c #FC735C",
"`  c #456F8D",
"'  c #4E738C",
"]  c #467494",
"[  c #4B7B9C",
"{  c #507F9F",
"}  c #4A7DA0",
"|  c #6F828A",
" . c #71838C",
".. c #5482A2",
"X. c #738525",
"o. c #65B1E5",
"O. c #66B3E8",
"+. c #69B7EC",
"@. c #69B8EE",
"#. c #6BBDF4",
"$. c #6EC2FC",
"%. c #828789",
"&. c #868C91",
"*. c #8B9DA6",
"=. c #8D9FA8",
"-. c #959CA5",
";. c #9EA5AE",
":. c #9FA6B0",
">. c #99AAB4",
",. c #A2A9B4",
"<. c #AAB2BD",
"1. c #AEBEC8",
"2. c #B5BDC7",
"3. c #B3C2CC",
"4. c #BCC1CB",
"5. c #BCCBD7",
"6. c #BDCCD8",
"7. c #C2CCD7",
"8. c #C4CEDA",
"9. c #C6D0DC",
"0. c #CCD6E3",
"q. c #CBD9E4",
"w. c #D1DAE5",
"e. c #D3DEEC",
"r. c #D5E1ED",
"t. c #DBE7F6",
"y. c #DDE9F5",
"u. c #DFEBFA",
"i. c #E1EDFC",
"p. c #E6F3FF",
"a. c #E9F5FF",
"s. c #EDF9FF",
"d. c #F1FDFF",
"f. c #FBFFFF",
/* pixels */
"                                                                ",
"                                                                ",
"                              O o                               ",
"                            o F F O         $ o $               ",
"                          $ P / / P $     # F U H $             ",
"                        , Q T > & T Q ,   o L _ U +             ",
"                    X d ) S = 1.3.= A ) 8 X K _ K +             ",
"                  o H _ 5 i q.s.s.q.i 4 _ D > W R +             ",
"                % I ~ : N i.a.u.u.a.p.N : ~ K > f %             ",
"              1 ^ Y & *.s.p.u.i.i.u.p.s.=.& Y Q < o             ",
"          X f _ Z 0 3.d.u.p.s.t.t.s.p.u.d.3.0 C _ f X           ",
"        @ J _ 3 j r.s.u.s.7.b u u b 7.s.u.s.r.j 2 _ J @         ",
"      & E ! ; | p.p.u.a.2.* &.8.9.&.* 2.a.u.p.a. .; ! E &       ",
"  X 7 ( L * >.d.i.u.i.y.y ,.f.p.p.f.,.t y.i.u.i.d.>.* L ( 7 X   ",
"  h _ G = 5.d.u.u.u.a.<.a a.i.u.u.i.s.a <.a.u.u.u.d.6.9 G _ h   ",
"  h f . x s.u.u.u.u.s.-.n s.u.u.u.u.s.m -.s.u.u.u.u.s.x . f h   ",
"        z p.i.u.u.i.f.:.m f.s.s.s.s.f.M ;.f.i.u.u.i.p.z         ",
"        z p.i.u.i.e.%.p 6 V B B B B V 6 p %.e.i.u.i.p.z         ",
"        z p.i.u.a.4.$ [ { ] ] } } ] ] { [ $ 4.a.u.i.p.z         ",
"        z p.i.u.p.4.r $.$.$.$.X.X.$.$.$.$.r 4.a.u.i.p.z         ",
"        z p.i.u.p.4.r @.+.#.' = = ' #.+.@.r 4.a.u.i.p.z         ",
"        z p.i.u.p.4.r @.@.#.q ` ` q #.@.@.r 4.a.u.i.p.z         ",
"        z p.i.u.p.4.r @.+.#...= = ..#.+.@.r 4.a.u.i.p.z         ",
"        z p.i.u.p.4.r @.+.+.$.c l $.+.+.@.r 4.a.u.i.p.z         ",
"        z p.i.u.p.4.r #.@.@.$.....$.@.@.#.r 4.a.u.i.p.z         ",
"        z p.i.u.p.4.w O.O.O.O.O.O.O.O.O.O.w 4.a.u.i.p.z         ",
"        z p.i.u.p.8.- q e e e e e e e e q - 8.p.u.i.p.z         ",
"        z s.a.p.p.p.r.w.w.w.w.w.w.w.w.w.w.r.p.p.p.a.s.v         ",
"        s 0.9.9.8.9.0.0.0.0.0.0.0.0.0.0.0.0.9.8.9.9.0.k         ",
"        * % % % % % % % % % % % % % % % % % % % % % % *         ",
"                                                                ",
"                                                                "
};
