/* XPM */
static char *_d89b1c6a90c49c2a5775ce8b45703c0dDY18oTp3nmhR5is[] = {
/* columns rows colors chars-per-pixel */
"32 32 16 1 ",
"  c #738525",
". c #4D3B39",
"X c #8F7772",
"o c #705654",
"O c #B7A099",
"+ c #760000",
"@ c #AD0000",
"# c #B7B7BB",
"$ c #767678",
"% c #D9D9DD",
"& c #534721",
"* c #9D704C",
"= c white",
"- c #9F8781",
"; c #8B5E4A",
": c #A77E5D",
/* pixels */
"             ..   ..            ",
"            .XX...XX.           ",
"          ....oXoXo....         ",
"         .ooXOXXXXXOXoo.        ",
"        .oXXOXXXXXXXOXXo.       ",
"       .oXXOXXXXXXXXXOXXo.      ",
"       .XXXOOXXXXXXXOOXXX.      ",
"      .oXXXXOOOOOOOOOXXXXo.     ",
"      .oXXXXXOOOOOOOXXXXXo.     ",
"      .ooXXXXXXXXXXXXXXXoo.     ",
"      .ooXXoXXXXXXXXXoXXoo.     ",
"     .ooooXoXXXXXXXXXoXoooo.    ",
"     .ooooooXXoXXXoXXoooooo.    ",
"     .oXoXoooooooooooooXoXo.    ",
"    .oXoXXoooooooooooooXXoXo.   ",
"    .Xo.OXooXoooooooXooXO.oX.   ",
"   .Xo.XXooOXoXXoXXoXOooXX.oX.  ",
"    ..XXooXXooOOoOOooXXooXX..   ",
"      ...XXo.XXo.oXX.oXX...     ",
"       +@...XXo.#.oXX...@+      ",
"       +$#%#...%%%...#%#$+      ",
"      &*$#%#%%=====%%#%#$*&     ",
"      &-$#%#%=======%#%#$-&     ",
"     &;$#%=%=========%=%#$;&    ",
"     &:$#%=============%#$:&    ",
"     &;$#==%=========%==#$;&    ",
"      $#%=%#=========#%=%#$     ",
"      $#%=%#%=======%#%=%#$     ",
"      $#%%##%=======%##%%#$     ",
"       $$##$%%=====%%$##$$      ",
"         $$$$#######$$$$        ",
"            &&&   &&&           "
};
