/* XPM */
static char *tile0051729376700[] = {
/* columns rows colors chars-per-pixel */
"32 32 34 1 ",
"  c #738525",
". c #2E1E22",
"X c #760000",
"o c #5C2E00",
"O c #4D3B39",
"+ c #534721",
"@ c #444444",
"# c #565657",
"$ c #77584A",
"% c #705654",
"& c #6D6D6E",
"* c #767678",
"= c #AD0000",
"- c #E61A1B",
"; c #FF2627",
": c #964F00",
"> c #8B5E4A",
", c #9D704C",
"< c #A77E5D",
"1 c #8F7772",
"2 c #C79D00",
"3 c #E3B700",
"4 c #D7906E",
"5 c #858587",
"6 c #928A8C",
"7 c #B89D92",
"8 c #B7A099",
"9 c #B7B7BB",
"0 c #EEBE93",
"q c #FFE1AF",
"w c gray85",
"e c #D9D9DD",
"r c gray95",
"t c white",
/* pixels */
"           O                    ",
"          O1O                   ",
"          O1%OOOOOO             ",
"          OO1%111%%OO           ",
"         O%%81111118%OO         ",
"        OX===111111181%O        ",
"       OX==;;;=11111881%O       ",
"       O==;;;;;=11188111%O      ",
"      O%111188===88811111%O     ",
"     O%111111111=111111111O     ",
"     O%111%11%11%11%1111%1%O    ",
"     O%11%0%1%%1%11%11%1%1%O    ",
"      O%1000%qq%q11%%1%1%%%O    ",
"       O+00q+++qq11++%%%%%%O    ",
"        +0qqe.w+q110q+%%%%%O    ",
"        +0qq6.r+q1%,q+%%%%%O    ",
"        +4qqootqq%q,0+%1%1O     ",
"        +,0q::qqqq04+%11%1O O   ",
"         +40qqqqq044O11%O1%O1O  ",
"          +,4400044,O18O1O11%O  ",
"           +++++++**O%11%O1%O   ",
"           *9eettte99O%%%O%O    ",
"          +23tttee--=eOOOOO     ",
"          XX=-te=X-==*et9*      ",
"           XX===XX=40*9et9*     ",
"           +5>>>>>>+7<*9te9*    ",
"          @@#----==+><<*tte*    ",
"          @#&&&&&###+>>*ett9*   ",
"          *t&&&&###e9++*9tt9*   ",
"          +*ttttee99>+***t9*    ",
"          +<<>$+**+++  **e*     ",
"           ++++          *      "
};
