/* XPM */
static char *_7eaaae3d6794834e0c12d641ff4f258FurjJBaJV65tWSOM[] = {
/* columns rows colors chars-per-pixel */
"32 32 35 1 ",
"  c #738525",
". c #4D3B39",
"X c #8F7772",
"o c #705654",
"O c #B7A099",
"+ c #AD0000",
"@ c #FF2627",
"# c #760000",
"$ c #EEBE93",
"% c #FFE1AF",
"& c #D7906E",
"* c #534721",
"= c gray85",
"- c #2E1E22",
"; c #D9D9DD",
": c gray95",
"> c #928A8C",
", c #9D704C",
"< c white",
"1 c #5C2E00",
"2 c #964F00",
"3 c #767678",
"4 c #B7B7BB",
"5 c #E61A1B",
"6 c #E3B700",
"7 c #C79D00",
"8 c #9F8781",
"9 c #8B5E4A",
"0 c #A77E5D",
"q c #B89D92",
"w c #77584A",
"e c #444444",
"r c #858587",
"t c #565657",
"y c #6D6D6E",
/* pixels */
"             ..   ..            ",
"            .XX...XX.           ",
"          ....oXoXo....         ",
"         .ooXOXXXXXOXoo.        ",
"        .oXXOX+@@@+XOXXo.       ",
"       .oXXO++@@@@@++OXXo.      ",
"       .XXX++@@@@@@@++XXX.      ",
"      .oXX##+OOOOOOO+##XXo.     ",
"      .oXo#XXXXXXXXXXX#oXo.     ",
"      .oXoXXXXoXXXoXXXXoXo.     ",
"      .oXoXoXo$oXo$oXoXoXo.     ",
"     .ooXoo$o%%%o%%%o$ooXoo.    ",
"     .o&Xo$***%%%%%***$oX&o.    ",
"     .o&oo*=-;%%%%%;-=*oo&o.    ",
"    .oX**o*:->%%%%%>-:*o**Xo.   ",
"    .oXo*,$<11%%%%%11<$,*oXo.   ",
"   .oX.oo*&$22%%%%%22$&*oo.Xo.  ",
"    ..oo33*&$%%%%%%%$&*33oo..   ",
"      ..344*,&$$$$$&,*443..     ",
"       #+5;4*********4;5+#      ",
"       #55#;<<;434;<<;#55#      ",
"      *,$&*#;<<676<<;#*&$,*     ",
"      *8$,*#+<55+55<+#*,$8*     ",
"     *90q**w###+++###w**q09*    ",
"     *009*e#w99rrr99w#e*900*    ",
"     *99*3ee+55ttt55+ee3*99*    ",
"      **<34ttyyyyyyytt43<**     ",
"      3<<334;yyy<yyy;433<<3     ",
"      3<<33*e;<<3<<;e*33<<3     ",
"       3<3 *90w* *w09* 3<3      ",
"        3  *009* *900*  3       ",
"            ***   ***           "
};
