/* XPM */
static char *tile0061729376668[] = {
/* columns rows colors chars-per-pixel */
"32 32 34 1 ",
"  c #738525",
". c #2E1E22",
"X c #760000",
"o c #5C2E00",
"O c #4D3B39",
"+ c #534721",
"@ c #444444",
"# c #565657",
"$ c #77584A",
"% c #705654",
"& c #6D6D6E",
"* c #767678",
"= c #AD0000",
"- c #E61A1B",
"; c #FF2627",
": c #964F00",
"> c #8B5E4A",
", c #9D704C",
"< c #A77E5D",
"1 c #8F7772",
"2 c #C79D00",
"3 c #E3B700",
"4 c #D7906E",
"5 c #858587",
"6 c #928A8C",
"7 c #B89D92",
"8 c #B7A099",
"9 c #B7B7BB",
"0 c #EEBE93",
"q c #FFE1AF",
"w c gray85",
"e c #D9D9DD",
"r c gray95",
"t c white",
/* pixels */
"                     O          ",
"                    O1O         ",
"              OOOOOO%1O         ",
"            OO%%111%1OO         ",
"          OO%81111118%%O        ",
"         O%181111111===XO       ",
"        O%18811111=;;;==XO      ",
"       O%11188111=;;;;;==O      ",
"      O%11111888===881111%O     ",
"      O111111111=111111111%O    ",
"     O%1%1111%11%11%11%111%O    ",
"     O%1%1%11%11%1%%1%0%11%O    ",
"     O%%%1%1%%11q%qq%0001%O     ",
"     O%%%%%%++11qq+++q00+O      ",
"     O%%%%%+q011q+w.eqq0+       ",
"     O%%%%%+q,%1q+r.6qq0+       ",
"      O1%1%+0,q%qqtooqq4+       ",
"    O O1%11%+40qqqq::q0,+       ",
"   O1O%1O%11O440qqqqq04+        ",
"   O%11O1O81O,4400044,+         ",
"    O%1O%11%O**+++++++          ",
"     O%O%%%O99etttee9*          ",
"      OOOOOe=--eettt32+         ",
"      **9te*==-X=et-=XX         ",
"     **9te9*04=XX===XX          ",
"    **9et9*<7+>>>>>>5+          ",
"    **ett*<<>+==----#@@         ",
"   **9tte*>>+###&&&&&#@         ",
"   **9tt9*++9e###&&&&t*         ",
"    **9t** +>99eetttt*+         ",
"     **e*   +++**+$><<+         ",
"      **          ++++          "
};
