/* XPM */
static char *_e45d86826894be8b8366bdd570d2b0cCQN8fdlyjewUXrtq[] = {
/* columns rows colors chars-per-pixel */
"32 32 110 2 ",
"   c #1E3A16",
".  c #272E1C",
"X  c #2B2D1E",
"o  c #213D16",
"O  c #25341A",
"+  c #2C361F",
"@  c #243E19",
"#  c #283A1B",
"$  c #2F2722",
"%  c #2E2921",
"&  c #3C2D2B",
"*  c #2F3621",
"=  c #353526",
"-  c #323B22",
";  c #3A3D26",
":  c #3D332C",
">  c #3B3D29",
",  c #40342F",
"<  c #413F2B",
"1  c #453533",
"2  c #493936",
"3  c #4D3C39",
"4  c #503E3B",
"5  c #274217",
"6  c #24431A",
"7  c #2C441B",
"8  c #27491D",
"9  c #2A4C1E",
"0  c #31451E",
"q  c #334C1C",
"w  c #2F501F",
"e  c #36521D",
"r  c #3A541D",
"t  c #3F581A",
"y  c #2B4420",
"u  c #374422",
"i  c #3A4424",
"p  c #2E5522",
"a  c #3E5721",
"s  c #325C26",
"d  c #3C5921",
"f  c #356027",
"g  c #3F6225",
"h  c #366128",
"j  c #39652A",
"k  c #3D6A2C",
"l  c #415A1E",
"z  c #47601D",
"x  c #4C641D",
"c  c #50671F",
"v  c #536B1E",
"b  c #474B28",
"n  c #494D28",
"m  c #435C21",
"M  c #4E4236",
"N  c #4E4930",
"B  c #4F403B",
"V  c #53433E",
"C  c #436527",
"Z  c #4A6423",
"A  c #476927",
"S  c #4D6B26",
"D  c #476728",
"F  c #416D2D",
"G  c #4C6D2A",
"H  c #516624",
"J  c #556C23",
"K  c #586F26",
"L  c #586929",
"P  c #42702F",
"I  c #4F712A",
"U  c #567126",
"Y  c #5A7226",
"T  c #53732C",
"R  c #5C7428",
"E  c #5F7829",
"W  c #467330",
"Q  c #497431",
"!  c #497632",
"~  c #4A7732",
"^  c #4F7732",
"/  c #4F7933",
"(  c #4F7B34",
")  c #527832",
"_  c #557C33",
"`  c #507934",
"'  c #517D36",
"]  c #547C35",
"[  c #564640",
"{  c #594741",
"}  c #5D4B44",
"|  c #558036",
" . c #588237",
".. c #578238",
"X. c #598339",
"o. c #5A8439",
"O. c #5D8539",
"+. c #5F883B",
"@. c #5E883C",
"#. c #61893B",
"$. c #638B3C",
"%. c #678F3F",
"&. c #68903F",
"*. c #699140",
"=. c #6B9442",
"-. c #6D9542",
";. c #6F9744",
":. c #709844",
">. c #759D47",
",. c #759D48",
/* pixels */
"J J v v v x c H U R K Y U J J K J J v v v x c H U R K Y U J J U ",
"U R J J U R R J H U J v H J U X._ I S J U R U J H U J v H J J J ",
"J R J U R U R U U U J U U / ] *.*.:.%.] R U R U U U J U U J v K ",
"R U J J J U J R K S G T o.O.-.:.%.:.,.:.] U J R K J K J H K Y J ",
"R H J J U U U U J | *.:.,.*.#.-.:.%.-.-.&. .U U J J J J K U U J ",
"U R U U J J J S F O.-.*.-.>.%.O.%.;.-.%.%.-. .U c H U U J U J R ",
"J J J U R U D ] ` ` #.*.%.*.#.$.%.O.#.$.:.:.%.o.] R J U J v J U ",
"R R K H G Q O.*.:.>.=.Q O.%.%.| %.-.X.O.o.O.%.&.>.O._ v J U Y Y ",
"U E R G X.' :.o.O.-.:.` Q / ] X.( O.W o.X.` *.:.$.#.%.A J J U J ",
"H U A W ` F Q / ` o. .$.W / | o...Q | j / ] O.*...' O.A U R R U ",
"U U J h k F F h s Q / $.F ^ ' $.;.;.o.Q Q ] -.%.( =. .I R U R U ",
"K J K A h P ] %.' ' ' X.Q F / Q ' O.Q F ' W k | | Q %.] H K J K ",
"J J J l s k h ( / j k Q P ] ` Q ( Q Q Q | ( @.k ( O.%.) U U U R ",
"c H U U 8 p k W j s k W Q P P P W ` W j P Q ( X.' ' W J J J R R ",
"U R J R w k k Q Q s s k j k h k F j k j j F P Q k F h J R U J J ",
"v v v l p s h k h s h F Q +.' s h h P ..( f F P j h j H U R E R ",
"J J v t 8 s s k Q s j P / W | k h k / Q | k j h W X.] C U J J U ",
"U R J Z 8 h h s h p s k P Q k s h k F k P k s s k Q P g H J J J ",
"J R J U q s s s h 9 s s k h # 6 s j k h p y s j ] F p d U J v J ",
"R R J J r p 8 s k s p s h p O o s s s h 7 # s j Q d H J H K Y H ",
"R H J J 7 9 6 s s j 8 s s 9 $ O 6 s s p X @ s j h s e J J U U J ",
"U R U U q   5 9 s p     8 8 : 1 .   6 O : 7 6 9 s s e U J U v R ",
"J J J U U m Z o 9 8 ; % X 1 V } 3 b , & L Z e r 6 8 q U J v J U ",
"R R J J J R R q   q U n : 1 } } V 2 V N K R R J z o l v J R Y Y ",
"U E R Y R R R U H J J x < 1 V } 3 V M H R R R U J H J v J J U J ",
"H U J v J J U U U J m m i 2 V { V { < r m J U U U R K J U R R U ",
"U U J J K J J K H Z r q - 1 V V [ { ; 7 t Z J K J R J U R U R U ",
"K J K K H K U K Z m q @ * 1 [ V [ V + 7 7 a J K R R J J J J J K ",
"J J J J J U R J m q # = 1 2 [ [ B 4 , + @ q S U U H J K U U U R ",
"c H U R J U J J a 0 = = : 2 V [ 3 : 3 V > u z U U R U U J J R R ",
"U R J U U v J U J t q 7 * : 1 3 : + # 7 q r J U J J K U R U J J ",
"v v v v J R Y U R R H m q 7 7 0 u ; q l Z U Y U R R K J K R E R "
};
