/* XPM */
static char *db06f19e708e4c6789c8a6109652b1b3yIk33vTtBFyY2pEt[] = {
/* columns rows colors chars-per-pixel */
"32 32 207 2 ",
"   c #738525",
".  c #060302",
"X  c #080402",
"o  c #090606",
"O  c #0B0706",
"+  c #0C0806",
"@  c #0E0807",
"#  c #0E0907",
"$  c #0A0808",
"%  c #100A07",
"&  c #120A08",
"*  c #120B08",
"=  c #110C0B",
"-  c #160C08",
";  c #140C0A",
":  c #120C0C",
">  c #120D0C",
",  c #120E0E",
"<  c #150E0C",
"1  c #160F0D",
"2  c #180D09",
"3  c #180F0C",
"4  c #1A0F0C",
"5  c #19100E",
"6  c #1C100C",
"7  c #141110",
"8  c #151110",
"9  c #151313",
"0  c #161212",
"q  c #161313",
"w  c #1B1210",
"e  c #1C1310",
"r  c #1C1311",
"t  c #191717",
"y  c #1A1717",
"u  c #1D1A17",
"i  c #1D1B1A",
"p  c #201511",
"a  c #211611",
"s  c #221611",
"d  c #211512",
"f  c #211713",
"g  c #221613",
"h  c #251612",
"j  c #261713",
"k  c #201815",
"l  c #221916",
"z  c #251A18",
"x  c #251B19",
"c  c #221C1A",
"v  c #271D1A",
"b  c #221E1D",
"n  c #281C18",
"m  c #281E1A",
"M  c #291E1B",
"N  c #2E1E19",
"B  c #2C1F1B",
"V  c #2A1F1C",
"C  c #25201F",
"Z  c #2B201B",
"A  c #2D201B",
"S  c #28201D",
"D  c #2A201D",
"F  c #2B201D",
"G  c #2A211F",
"H  c #2E201C",
"J  c #32211B",
"K  c #33241E",
"L  c #37241E",
"P  c #3C251B",
"I  c #38251E",
"U  c #3D291D",
"Y  c #252120",
"T  c #252322",
"R  c #272323",
"E  c #2C2121",
"W  c #322521",
"Q  c #342622",
"!  c #3A2720",
"~  c #382422",
"^  c #372822",
"/  c #312827",
"(  c #352824",
")  c #362824",
"_  c #362924",
"`  c #3A2A24",
"'  c #3B2A24",
"]  c #3B2C26",
"[  c #3C2D27",
"{  c #3D2D27",
"}  c #3C2928",
"|  c #3F2F29",
" . c #3E302A",
".. c #343333",
"X. c #373534",
"o. c #3C3937",
"O. c #40281E",
"+. c #422A21",
"@. c #402E28",
"#. c #402F28",
"$. c #432F28",
"%. c #423029",
"&. c #40312B",
"*. c #443029",
"=. c #44312A",
"-. c #43322C",
";. c #43332C",
":. c #47362F",
">. c #4A352E",
",. c #4A362E",
"<. c #4A372F",
"1. c #50352B",
"2. c #52372D",
"3. c #53372D",
"4. c #53382E",
"5. c #56392E",
"6. c #483330",
"7. c #483730",
"8. c #4B3632",
"9. c #463B35",
"0. c #483830",
"q. c #4A3831",
"w. c #4C3931",
"e. c #4D3931",
"r. c #4E3931",
"t. c #4D3A31",
"y. c #4F3A31",
"u. c #453C38",
"i. c #533632",
"p. c #563730",
"a. c #503A32",
"s. c #573831",
"d. c #553C33",
"f. c #563C33",
"g. c #573D33",
"h. c #523D35",
"j. c #593B30",
"k. c #583B31",
"l. c #583C32",
"z. c #593C32",
"x. c #5A3E33",
"c. c #5C3E33",
"v. c #5D3F33",
"b. c #583A35",
"n. c #5A3E34",
"m. c #5A3F35",
"M. c #5E3F34",
"N. c #533D3C",
"B. c #5A3F38",
"V. c #603C37",
"C. c #633F3A",
"Z. c #643F39",
"A. c #5F4034",
"S. c #5F4035",
"D. c #5C4039",
"F. c #664133",
"G. c #624136",
"H. c #634136",
"J. c #634236",
"K. c #644237",
"L. c #63403A",
"P. c #60423B",
"I. c #654039",
"U. c #60423D",
"Y. c #62433C",
"T. c #63433D",
"R. c #65453F",
"E. c #68413E",
"W. c #6E483D",
"Q. c #4A4947",
"!. c #4C4A4A",
"~. c #4E4A4A",
"^. c #515050",
"/. c #634540",
"(. c #6B4340",
"). c #6B4742",
"_. c #6C4843",
"`. c #724940",
"'. c #734941",
"]. c #744942",
"[. c #774B44",
"{. c #7B4D47",
"}. c #764C48",
"|. c #774D49",
" X c #7F4F4A",
".X c #6F5C58",
"XX c #705A54",
"oX c gray44",
"OX c #81504B",
"+X c #8F5C4E",
"@X c #895552",
"#X c #8C5654",
"$X c #956051",
"%X c #9E6F5E",
"&X c #A46E60",
"*X c #A26D69",
"=X c #A37362",
"-X c #A77061",
";X c #A6716C",
":X c #AE7569",
">X c #B37963",
",X c #B77B65",
"<X c #B3796D",
"1X c #B97D69",
"2X c #BB836F",
"3X c #BD8570",
"4X c #C1836D",
/* pixels */
"                                                                ",
"                                Q.O !.                          ",
"                                6.* 7.                          ",
"                              !.T.f /.                          ",
"                              / v M M E                         ",
"                            T 5 L * I 5 9                       ",
"                            w ] Z % V { r                       ",
"                          N.*X}.q.^ 7.}.;X}                     ",
"                            O %.e.n.e.*.#                       ",
"                          J G.S.G.K.G.S.G.B                     ",
"                        b Z. XT._.[.).T.OXI.9                   ",
"                        c j ' l.L.).L.l.' j >                   ",
"                        T # { H -.q.-.A | # t                   ",
"                          4 5.<.) R.) <.k.6                     ",
"                        h.2 1.l.e.{.e.n.2.; :.                  ",
"                        W.r f k.a.n.a.l.f 1 F.                  ",
"                        &Xf > <.e.g.e.<.= 1 -X                  ",
"                        9.X M g.e.g.e.g.M . u.                  ",
"                          l @XD.e.G.e.B.#Xl                     ",
"                        t $.].C.$.'.$.L.'.*.$                   ",
"                        T  .c.E.x 4.B (.c.%.9                   ",
"                        C Q M.K f 2.> ' S.W 9                   ",
"                          G ) ; V.s.i 4 ) G                     ",
"                          x f 9 ~ p.  ^.f v                     ",
"                          :X+X  o.~ T   $X<X                    ",
"                        u 1XXX    X...  .X4X>                   ",
"                        b.2X+.    oX    O.3Xi.                  ",
"                        %X>XU           P ,X=X                  ",
"                          G               G                     ",
"                                                                ",
"                                                                ",
"                                                                "
};
