/* XPM */
static char *_051147a6fdd4458d05a350692fa57dessq1QaezsZenjJoY[] = {
/* columns rows colors chars-per-pixel */
"32 32 200 2 ",
"   c #738525",
".  c black",
"X  c #070403",
"o  c #080503",
"O  c #090504",
"+  c #090604",
"@  c #0B0706",
"#  c #0D0604",
"$  c #0D0807",
"%  c #0F0907",
"&  c #0F0B0A",
"*  c #100A08",
"=  c #110B08",
"-  c #110B09",
";  c #130B08",
":  c #120B09",
">  c #120C0B",
",  c #130D0B",
"<  c #150D0B",
"1  c #140E0C",
"2  c #170F0D",
"3  c #180F0D",
"4  c #17100E",
"5  c #18110F",
"6  c #1A110E",
"7  c #19120F",
"8  c #1C110D",
"9  c #1F120E",
"0  c #171515",
"q  c #1D1512",
"w  c #181616",
"e  c #191716",
"r  c #1A1716",
"t  c #1F1714",
"y  c #1F1815",
"u  c gray10",
"i  c #1C1918",
"p  c #1D1918",
"a  c #1E1D1D",
"s  c #210E07",
"d  c #21120F",
"f  c #20130F",
"g  c #29160D",
"h  c #221511",
"j  c #231610",
"k  c #221611",
"l  c #201713",
"z  c #231713",
"x  c #241712",
"c  c #231714",
"v  c #251813",
"b  c #211814",
"n  c #211815",
"m  c #231916",
"M  c #261914",
"N  c #251A16",
"B  c #241A17",
"V  c #261B16",
"C  c #291B16",
"Z  c #291C17",
"A  c #2B1C16",
"S  c #231B18",
"D  c #201B1A",
"F  c #241B18",
"G  c #201C1A",
"H  c #211D1A",
"J  c #241D1A",
"K  c #251E1B",
"L  c #201D1D",
"P  c #221D1C",
"I  c #221E1C",
"U  c #291D18",
"Y  c #2B1C19",
"T  c #2A1E1A",
"R  c #2A1F1A",
"E  c #2A1F1B",
"W  c #2E1E19",
"Q  c #2D1E1B",
"!  c #2F1E1C",
"~  c #331A10",
"^  c #301913",
"/  c #381E10",
"(  c #391E13",
")  c #301E1B",
"_  c #2D201A",
"`  c #2F211B",
"'  c #28201E",
"]  c #2C201C",
"[  c #2F211C",
"{  c #2E211D",
"}  c #2F221D",
"|  c #332018",
" . c #30201A",
".. c #30221C",
"X. c #31221C",
"o. c #30231E",
"O. c #30231F",
"+. c #34201C",
"@. c #35231C",
"#. c #34221F",
"$. c #33241F",
"%. c #35241D",
"&. c #39231A",
"*. c #39261F",
"=. c #2A2221",
"-. c #232822",
";. c #262923",
":. c #362720",
">. c #372622",
",. c #3E2626",
"<. c #352924",
"1. c #362925",
"2. c #372A25",
"3. c #3C2A23",
"4. c #392A25",
"5. c #3C2925",
"6. c #3C2B25",
"7. c #3D2D26",
"8. c #3D2E27",
"9. c #3C2E28",
"0. c #3D2E28",
"q. c #3E302A",
"w. c #3D362B",
"e. c #323131",
"r. c #3B3633",
"t. c #3F3F3F",
"y. c #412014",
"u. c #4A2B1F",
"i. c #412B24",
"p. c #422B27",
"a. c #422D25",
"s. c #492C21",
"d. c #452B29",
"f. c #4F3124",
"g. c #453029",
"h. c #47312A",
"j. c #43332D",
"k. c #41352F",
"l. c #46352D",
"z. c #4D332B",
"x. c #4A342A",
"c. c #51312F",
"v. c #473730",
"b. c #4A3830",
"n. c #4A3831",
"m. c #4F3831",
"M. c #4F3D37",
"N. c #543532",
"B. c #5C3735",
"V. c #503830",
"C. c #513830",
"Z. c #503930",
"A. c #533930",
"S. c #513B32",
"D. c #543C32",
"F. c #543C33",
"G. c #533A34",
"H. c #563C34",
"J. c #583D33",
"K. c #583E37",
"L. c #5A3E36",
"P. c #5B3F37",
"I. c #653421",
"U. c #623D33",
"Y. c #613E35",
"T. c #5E4034",
"R. c #5F4034",
"E. c #50433C",
"W. c #55413D",
"Q. c #5E4039",
"!. c #624135",
"~. c #6B4230",
"^. c #60403B",
"/. c #654339",
"(. c #64413B",
"). c #66423C",
"_. c #69443A",
"`. c #764B3F",
"'. c #414141",
"]. c #474343",
"[. c #584643",
"{. c #5C4942",
"}. c #644340",
"|. c #694643",
" X c #6C4741",
".X c #654C43",
"XX c #6E4841",
"oX c #6E4945",
"OX c #714641",
"+X c #724942",
"@X c #724A46",
"#X c #794D47",
"$X c #8D5847",
"%X c #865B4F",
"&X c #8A5451",
"*X c #896056",
"=X c #906254",
"-X c #9F665D",
";X c #B67966",
":X c #C88C73",
/* pixels */
"                        {.[.                                    ",
"                                                                ",
"                                L                               ",
"                              . 4 '.                            ",
"                                i ] '.                          ",
"                                . N.j                           ",
"                                u c.=.                          ",
"                              '.2 6.i t.                        ",
"                            ' 2.j.K.0.E ].                      ",
"                          G Y.S.S.+Xv./.%.                      ",
"                          O.+X XS.R.n.&XS.S                     ",
"                        r S.4./.v.F.F.H.0.|                     ",
"                        C _.B J.n.J.F.h.a.Y..                   ",
"                        b /.*.J.F.!.n.R._ )..                   ",
"                        L B S.l.0.F.2.J.F B                     ",
"                        | : 7.] j.v.2.>.E s                     ",
"                        y.o c S.K.K.S.6.: ( J                   ",
"                  .   . $X+ p.S.#X@XJ.z.B K.^                   ",
"                      . ;X! }.E ^.+X] d.|.U.F.                  ",
"                        j S d >.b a.J ) $.# k.                  ",
"                        E & 8 ] 7._ j.8 7 b r                   ",
"                      . v.% q s.j : u.O.+ ] t                   ",
"                      . G.7 v -.( g w.: O.@.y                   ",
"                      . B.Q Q.E.j 3.;.oXA OX:                   ",
"                        Q 6.+ @.4.h.x., 3 m.r                   ",
"                        0 q.< x &.j f.% d 7                     ",
"                        . p.,.G E , A X @.X                     ",
"                        a ^ d   e.L r.u -X2                     ",
"                        O.I.~.        M.:X*X.                   ",
"                        W.%X=X        .XXX`.                    ",
"                                                                ",
"                                                                "
};
