/* XPM */
static char *_57f5b945af54008bb9ed7c610c3176adfX4cpe0csEue8XB[] = {
/* columns rows colors chars-per-pixel */
"32 32 127 2 ",
"   c #738525",
".  c black",
"X  c #030001",
"o  c #020101",
"O  c #030101",
"+  c #030202",
"@  c #040301",
"#  c #070303",
"$  c #070505",
"%  c #080504",
"&  c #090504",
"*  c #0B0504",
"=  c #090605",
"-  c #0A0605",
";  c #0B0605",
":  c #0C0604",
">  c #0C0707",
",  c #0D0806",
"<  c #0C0807",
"1  c #0D0807",
"2  c #0C0908",
"3  c #0D0909",
"4  c #0F0908",
"5  c #110C04",
"6  c #130C07",
"7  c #120B08",
"8  c #110B0A",
"9  c #130C0B",
"0  c #150E0C",
"q  c #150F0D",
"w  c #170F0C",
"e  c #150F0E",
"r  c #190F0C",
"t  c #15100E",
"y  c #191209",
"u  c #18110E",
"i  c #1A110E",
"p  c #1B120E",
"a  c #1B1412",
"s  c #1D1411",
"d  c #1E1512",
"f  c #1F1614",
"g  c #1C1913",
"h  c #20170D",
"j  c #261B0C",
"k  c #201511",
"l  c #211613",
"z  c #271A11",
"x  c #211815",
"c  c #251B17",
"v  c #261A16",
"b  c #231C16",
"n  c #291B17",
"m  c #241B18",
"M  c #261C1A",
"N  c #2A1D19",
"B  c #281E1A",
"V  c #291F1A",
"C  c #292116",
"Z  c #252119",
"A  c #2D201A",
"S  c #2D211D",
"D  c #2D221F",
"F  c #322413",
"G  c #382817",
"H  c #31201A",
"J  c #32221D",
"K  c #30241F",
"L  c #32241F",
"P  c #35241E",
"I  c #3B261D",
"U  c #3A261F",
"Y  c #3B271F",
"T  c #352B1C",
"R  c #302722",
"E  c #362621",
"W  c #342722",
"Q  c #3E2724",
"!  c #372C21",
"~  c #3D2922",
"^  c #3C2F20",
"/  c #3E2E23",
"(  c #3F2E23",
")  c #382B25",
"_  c #3D2B26",
"`  c #3D2E27",
"'  c #3F3121",
"]  c #3E302A",
"[  c #3F3529",
"{  c #422C24",
"}  c #432E27",
"|  c #412B29",
" . c #472C28",
".. c #483225",
"X. c #493626",
"o. c #4E3D26",
"O. c #403229",
"+. c #45322B",
"@. c #4C3229",
"#. c #4A322F",
"$. c #4C352D",
"%. c #53372E",
"&. c #473730",
"*. c #4E3931",
"=. c #543C32",
"-. c #5B3E34",
";. c #5E3B39",
":. c #55422F",
">. c #52442F",
",. c #5B4629",
"<. c #4C4231",
"1. c #624135",
"2. c #68453D",
"3. c #6F473E",
"4. c #744645",
"5. c #764B46",
"6. c #7C4E47",
"7. c #754F4B",
"8. c #645243",
"9. c #675540",
"0. c #6E5C42",
"q. c #5E6159",
"w. c #8A5451",
"e. c #975B5A",
"r. c #916360",
"t. c #937E62",
"y. c #AF8E74",
/* pixels */
"                                                                ",
"                                                                ",
"                                                                ",
"                                                                ",
"                                                                ",
"                                                                ",
"                                                                ",
"                                                                ",
"          .                                                     ",
"          . . r.                                                ",
"          * 9 7.| . * Q e .           . . .                     ",
"        * s M W ;.] _ 1.#.5.e @ . . , D K N 8 @                 ",
"      . I  .] &.=.&.=.1.=.$.%.1.~ K &.&.=.6.3.-.s .             ",
"  . * e q./ &.&.-.*.*.1.-.-.1.1.-.&.&.&.=.1.1.1.$., .           ",
". @ ../ +.3.2.2.| &.&.&.-.1.3.w.1.1.1.1.1.1.1.1.=.x 8           ",
"  l W x l D *.$.D &.] =.1.1.J { =.1.1.1.=.1.1.1.=.N +., .       ",
"    . . . : a K _ ` _ 2.1.@.N =.3.-.) N W 3.w.3.] * m =.K A t   ",
"              p c r $.e.6.I c &.=.P $ e f { w.%.4     l H 8 .   ",
"                . $ c w.1.I * a a . . , p +.=.K .               ",
"                  * * p { 4           . r * 4.$.n *             ",
"                  h 4 :.X..             . ' : z y.O.            ",
"                Z [ b ,.y             . G [ 6 o.j               ",
"              Z >.9.t.F             >.0.T / 0.C                 ",
"              g g <.<..           . R ! . O.8.6                 ",
"                                                                ",
"                                                                ",
"                                                                ",
"                                                                ",
"                                                                ",
"                                                                ",
"                                                                ",
"                                                                "
};
