/* XPM */
static char *_8166daacf134fd19a9a5273d551b3453UKqnjuS9z642hXJ[] = {
/* columns rows colors chars-per-pixel */
"32 32 166 2 ",
"   c #738525",
".  c black",
"X  c #020000",
"o  c #020001",
"O  c #030201",
"+  c #020202",
"@  c #030202",
"#  c #050202",
"$  c #040302",
"%  c #040303",
"&  c #050303",
"*  c #060302",
"=  c #060303",
"-  c #050402",
";  c #050403",
":  c #070403",
">  c #070503",
",  c #050404",
"<  c #060404",
"1  c #080505",
"2  c #090704",
"3  c #080605",
"4  c #0A0604",
"5  c #0A0605",
"6  c #0B0705",
"7  c #080606",
"8  c #0C0604",
"9  c #0E0A05",
"0  c #0D0806",
"q  c #0D0C09",
"w  c #160F05",
"e  c #100908",
"r  c #110A08",
"t  c #120B09",
"y  c #130C09",
"u  c #100D0A",
"i  c #150C09",
"p  c #160E0B",
"a  c #120C0C",
"s  c #120D0C",
"d  c #140E0C",
"f  c #160E0C",
"g  c #140F0E",
"h  c #171005",
"j  c #1F1509",
"k  c #1B100C",
"l  c #19110E",
"z  c #1A100E",
"x  c #1A1210",
"c  c #1C1311",
"v  c #1F1513",
"b  c #1E1613",
"n  c #1F1613",
"m  c #211613",
"M  c #201614",
"N  c #231814",
"B  c #231A16",
"V  c #251915",
"C  c #271914",
"Z  c #2B1C17",
"A  c #231B18",
"S  c #281B1A",
"D  c #2A1D18",
"F  c #281E19",
"G  c #291F1A",
"H  c #291E1B",
"J  c #2A1E1B",
"K  c #2C1F1C",
"L  c #2F211B",
"P  c #2B201C",
"I  c #2C201D",
"U  c #2D211D",
"Y  c #2C221E",
"T  c #2F231F",
"R  c #2A241C",
"E  c #302113",
"W  c #342415",
"Q  c #31201A",
"!  c #32211A",
"~  c #33231E",
"^  c #31241E",
"/  c #32241F",
"(  c #37241D",
")  c #3F2E1D",
"_  c #322221",
"`  c #302421",
"'  c #322622",
"]  c #342520",
"[  c #362721",
"{  c #392721",
"}  c #302A20",
"|  c #312A20",
" . c #322B21",
".. c #362924",
"X. c #372A25",
"o. c #3E2820",
"O. c #3C2822",
"+. c #392B26",
"@. c #392C27",
"#. c #3C2C27",
"$. c #3D2E28",
"%. c #3C3327",
"&. c #402921",
"*. c #442B26",
"=. c #402E24",
"-. c #422E27",
";. c #442E27",
":. c #402A28",
">. c #402F29",
",. c #4B3427",
"<. c #463328",
"1. c #42332D",
"2. c #46342D",
"3. c #46362F",
"4. c #483129",
"5. c #493129",
"6. c #48322A",
"7. c #4A352D",
"8. c #453A2A",
"9. c #4C3E2F",
"0. c #473730",
"q. c #483830",
"w. c #4A3831",
"e. c #4B3831",
"r. c #493C32",
"t. c #503B32",
"y. c #533B32",
"u. c #523D33",
"i. c #543C32",
"p. c #563D33",
"a. c #573D33",
"s. c #5D3E33",
"d. c #5C3F34",
"f. c #55442B",
"g. c #544632",
"h. c #5F4034",
"j. c #5E4A30",
"k. c #584C38",
"l. c #594D39",
"z. c #614135",
"x. c #624135",
"c. c #604139",
"v. c #664338",
"b. c #674338",
"n. c #69453A",
"m. c #6B5638",
"M. c #704841",
"N. c #724942",
"B. c #744A41",
"V. c #794C46",
"C. c #7C4E47",
"Z. c #6C5C45",
"A. c #725E42",
"S. c #716249",
"D. c #6F756B",
"F. c #895552",
"G. c #8C5652",
"H. c #8E5754",
"J. c #805955",
"K. c #925856",
"L. c #965A59",
"P. c #975B5A",
"I. c #80654C",
"U. c #94635F",
"Y. c #8F7A62",
"T. c #CCA482",
/* pixels */
"                                                                ",
"                                                                ",
"                                                                ",
"                                                                ",
"                                                                ",
"                                                                ",
"                                                                ",
"                                                    .           ",
"                                                J.. #           ",
"                      . .           . . G Z . S U.k 7           ",
"                . 0 A ^ ^ g . . . > b V.#.s.X.:.$.I M 7         ",
"              r 7.x.C.v.0.0.X.G ;.x.=.x.q.x.0.d.0.1.*.O..       ",
"            , I x.x.x.i.q.0.0.0.x.x.x.x.i.x.q.h.0.0.<.D.g 7     ",
"          # r 1.x.x.x.x.x.x.x.x.x.P.x.x.t.0.0._ M.c.B.3.=.,.,   ",
". .   . # ~ G 1.x.x.x.x.h.x.x.x.i.&.G x.x.+.0.` 4.t.` m b ] Q   ",
"  # A L 7.>.7 I d.K.C.4.G G i.x.x.3.B x.v.4.@.] X.B 8 . . .     ",
"    7 V Q .   . { G.v.x x 7 G i.i.3.i x.P.H.I V i .             ",
"                g 0.i.P u # . # A a 7 x.n.M.r , .               ",
"              g.O.F.k k >             K ( # r                   ",
"            . T.u.. c .               E I.7 W                   ",
"              w j.j | ) 7             > f.| %.|                 ",
"                . Z.9.> S.m.,           0 Y.A.8.|               ",
"                  r.b u h a #             k.k.q R               ",
"                                                                ",
"                                                                ",
"                                                                ",
"                                                                ",
"                                                                ",
"                                                                ",
"                                                                ",
"                                                                ",
"                                                                "
};
